<svg xmlns="http://www.w3.org/2000/svg" width="745.253" height="740.874" viewBox="0 0 745.253 740.874">
  <g id="Groupe_1" data-name="Groupe 1" transform="translate(-331 -293)">
    <g id="g12" transform="translate(331 1124.23)">
      <path id="path64" d="M364.272-695.017a9.332,9.332,0,0,0,9.315-9.315,9.333,9.333,0,0,0-9.315-9.315,9.334,9.334,0,0,0-9.315,9.315,9.333,9.333,0,0,0,9.315,9.315" fill="#f28f62" fill-rule="evenodd"/>
      <path id="path66" d="M372.626-90.356c205.234,0,372.627-4.251,372.627-9.461S577.86-109.28,372.626-109.28,0-105.028,0-99.817s167.39,9.461,372.626,9.461" fill="#b2a29e" fill-rule="evenodd"/>
      <path id="path68" d="M427.951-696.44h44.081l12.6,60.932c2.505,12.121-5.361,22.04-17.485,22.04h0c-12.12,0-24.091-9.919-26.6-22.04l-12.6-60.932" fill="#f28f62" fill-rule="evenodd"/>
      <path id="path70" d="M140.152-502.259H312.237v-4.709H140.152v4.709" fill="#463d3b" fill-rule="evenodd"/>
      <path id="path72" d="M234.177-584.435h0a4.151,4.151,0,0,1,4.139,4.14v43.171a4.152,4.152,0,0,1-4.139,4.139h0a4.153,4.153,0,0,1-4.139-4.139v-43.171a4.152,4.152,0,0,1,4.139-4.14" fill="#463d3b" fill-rule="evenodd"/>
      <path id="path74" d="M290.466-193.666l26.556-14.095c16.775-8.9,39.256-3.245,49.96,12.575h0c10.7,15.819,5.736,36.045-11.039,44.948l-26.556,14.095c-16.776,8.905-39.255,3.245-49.96-12.575h0c-10.705-15.819-5.736-36.043,11.039-44.948" fill="#cc2d23" fill-rule="evenodd"/>
      <path id="path76" d="M413.5-350.854h191l32.409-210.382h7.164c28.624,0,48.373,23.347,43.964,51.969L659.3-322.7H600.16l.967-6.275H413.5v-21.879" fill="#cd1f65" fill-rule="evenodd"/>
      <path id="path78" d="M443.807-142.854H627.128v-29.568H443.807v29.568" fill="#948681" fill-rule="evenodd"/>
      <path id="path80" d="M646.961-563.9h7.164c28.624,0,48.372,23.347,43.964,51.971L665.426-299.9H606.292l40.669-264" fill="#b2a29e" fill-rule="evenodd"/>
      <path id="path82" d="M672.66-101.136,640-313.162H580.861l32.664,212.026Zm-282.213,0L423.11-313.162h59.136L449.583-101.136H390.447" fill="#b2a29e" fill-rule="evenodd"/>
      <path id="path84" d="M660.117-299.9H402.99a20.293,20.293,0,0,1-20.232-20.232h0a20.291,20.291,0,0,1,20.232-20.232H660.117a20.289,20.289,0,0,1,20.232,20.232h0A20.291,20.291,0,0,1,660.117-299.9" fill="#d7c9c4" fill-rule="evenodd"/>
      <path id="path86" d="M625.137-163.256a5.619,5.619,0,0,1,5.616,5.62,5.617,5.617,0,0,1-5.616,5.617,5.618,5.618,0,0,1-5.619-5.617A5.62,5.62,0,0,1,625.137-163.256Zm-187.165,0a5.618,5.618,0,0,1,5.617,5.62,5.617,5.617,0,0,1-5.617,5.617,5.617,5.617,0,0,1-5.616-5.617,5.618,5.618,0,0,1,5.616-5.62h0" fill="#766864" fill-rule="evenodd"/>
      <path id="path88" d="M461.988-320.755a5.62,5.62,0,0,1,5.62,5.617,5.621,5.621,0,0,1-5.62,5.62,5.621,5.621,0,0,1-5.617-5.62,5.619,5.619,0,0,1,5.617-5.617" fill="#766864" fill-rule="evenodd"/>
      <path id="path90" d="M610.526-320.755a5.618,5.618,0,0,1,5.617,5.617,5.619,5.619,0,0,1-5.617,5.62,5.618,5.618,0,0,1-5.617-5.62,5.617,5.617,0,0,1,5.617-5.617" fill="#766864" fill-rule="evenodd"/>
      <path id="path92" d="M216.655-157.326l84.908,11.932a27.293,27.293,0,0,1,23.611,27.162v17.1H91.736v-379.04H330.222v52.369H216.655v270.481" fill="#b2a29e" fill-rule="evenodd"/>
      <path id="path94" d="M45.677-458.095H387.632v-44.164H45.677v44.164" fill="#d7c9c4" fill-rule="evenodd"/>
      <path id="path96" d="M91.736-444.842H330.222v-13.253H91.736v13.253" fill="#948681" fill-rule="evenodd"/>
      <path id="path98" d="M276.118-131.278a7.887,7.887,0,0,1,7.889,7.885,7.888,7.888,0,0,1-7.889,7.888,7.887,7.887,0,0,1-7.884-7.888A7.886,7.886,0,0,1,276.118-131.278Zm-143.216,0a7.887,7.887,0,0,1,7.886,7.885A7.887,7.887,0,0,1,132.9-115.5a7.887,7.887,0,0,1-7.885-7.888,7.886,7.886,0,0,1,7.885-7.885h0" fill="#766864" fill-rule="evenodd"/>
      <path id="path100" d="M437.751-350.854H339.284a25.648,25.648,0,0,1-25.571-25.573h0A25.647,25.647,0,0,1,339.284-402h98.466a25.649,25.649,0,0,1,25.573,25.575h0a25.649,25.649,0,0,1-25.573,25.573" fill="#f28f62" fill-rule="evenodd"/>
      <path id="path102" d="M377.583-416.194H577.457v32.671a32.767,32.767,0,0,1-32.671,32.669h-167.2v-65.34" fill="#fbca07" fill-rule="evenodd"/>
      <path id="path104" d="M364.858-376.427v174.75A25.647,25.647,0,0,1,339.284-176.1h0a25.647,25.647,0,0,1-25.571-25.572v-174.75A25.647,25.647,0,0,1,339.284-402h0a25.647,25.647,0,0,1,25.573,25.572" fill="#f28f62" fill-rule="evenodd"/>
      <path id="path106" d="M577.457-416.194h-123L419.3-586.209c-6.995-33.825,14.957-61.5,48.783-61.5h0c33.827,0,67.222,27.675,74.217,61.5l35.156,170.016" fill="#cc2d23" fill-rule="evenodd"/>
      <path id="path108" d="M451.751-627.036a19.5,19.5,0,0,1,27.5,1.987,19.5,19.5,0,0,1-1.987,27.5l-104.08,90.476a19.408,19.408,0,0,1-12.756,4.755v.059H222.646a19.557,19.557,0,0,1-19.557-19.555,19.557,19.557,0,0,1,19.557-19.557H353.21l98.541-85.665" fill="#f28f62" fill-rule="evenodd"/>
      <path id="path110" d="M393.436-585.773l53.645-46.635a26.663,26.663,0,0,1,37.555,2.7,26.7,26.7,0,0,1-2.7,37.533l-53.589,46.585-34.912-40.184" fill="#7e2b1a" fill-rule="evenodd"/>
      <path id="path112" d="M361.43-791.773H481.512v81.233A60.219,60.219,0,0,1,421.471-650.5h0A60.217,60.217,0,0,1,361.43-710.54v-81.233" fill="#f28f62" fill-rule="evenodd"/>
      <path id="path114" d="M357.139-817.506h101.9a25.979,25.979,0,0,1,25.9,25.9v0a25.978,25.978,0,0,1-25.9,25.9h-101.9a25.978,25.978,0,0,1-25.9-25.9v0a25.979,25.979,0,0,1,25.9-25.9" fill="#2f2825" fill-rule="evenodd"/>
      <path id="path116" d="M462.468-803.1h0a32.514,32.514,0,0,1,32.42,32.423v62.786a32.514,32.514,0,0,1-32.42,32.42h0a32.517,32.517,0,0,1-32.423-32.42v-62.786A32.518,32.518,0,0,1,462.468-803.1" fill="#2f2825" fill-rule="evenodd"/>
      <path id="path118" d="M331.237-791.6v-13.724a25.979,25.979,0,0,1,25.9-25.9h0a25.981,25.981,0,0,1,25.9,25.9V-791.6a25.981,25.981,0,0,1-25.9,25.9h0a25.979,25.979,0,0,1-25.9-25.9" fill="#2f2825" fill-rule="evenodd"/>
      <path id="path120" d="M439.478-686.1c12,0,21.785-11.943,21.785-26.588s-9.787-26.591-21.785-26.591-21.787,11.945-21.787,26.591,9.787,26.588,21.787,26.588" fill="#f28f62" fill-rule="evenodd"/>
      <path id="path122" d="M364.532-747.058h16.593A6.081,6.081,0,0,1,387.19-741h0a6.081,6.081,0,0,1-6.064,6.061H364.532a6.078,6.078,0,0,1-6.06-6.061h0a6.078,6.078,0,0,1,6.06-6.063" fill="#2f2825" fill-rule="evenodd"/>
      <path id="path124" d="M371-739.666h0a6.155,6.155,0,0,1,6.136,6.136v8.871A6.154,6.154,0,0,1,371-718.524h0a6.155,6.155,0,0,1-6.137-6.136v-8.871A6.155,6.155,0,0,1,371-739.666" fill="#2f2825" fill-rule="evenodd"/>
      <path id="path126" d="M372.11-730.5h0a3.038,3.038,0,0,1,3.029,3.029v.344a3.038,3.038,0,0,1-3.029,3.029h0a3.038,3.038,0,0,1-3.029-3.029v-.344a3.038,3.038,0,0,1,3.029-3.029" fill="#d7c9c4" fill-rule="evenodd"/>
    </g>
  </g>
</svg>
